<svg id="visual" viewBox="0 0 900 600" width="900" height="600" xmlns="http://www.w3.org/2000/svg" xmlns:xlink="http://www.w3.org/1999/xlink" version="1.1"><rect x="0" y="0" width="900" height="600" fill="#FFFFFF"></rect><defs><linearGradient id="grad1_0" x1="33.3%" y1="0%" x2="100%" y2="100%"><stop offset="20%" stop-color="#4570de" stop-opacity="1"></stop><stop offset="80%" stop-color="#4570de" stop-opacity="1"></stop></linearGradient></defs><defs><linearGradient id="grad1_1" x1="33.3%" y1="0%" x2="100%" y2="100%"><stop offset="20%" stop-color="#4570de" stop-opacity="1"></stop><stop offset="80%" stop-color="#aeb4f0" stop-opacity="1"></stop></linearGradient></defs><defs><linearGradient id="grad1_2" x1="33.3%" y1="0%" x2="100%" y2="100%"><stop offset="20%" stop-color="#ffffff" stop-opacity="1"></stop><stop offset="80%" stop-color="#aeb4f0" stop-opacity="1"></stop></linearGradient></defs><defs><linearGradient id="grad2_0" x1="0%" y1="0%" x2="66.7%" y2="100%"><stop offset="20%" stop-color="#4570de" stop-opacity="1"></stop><stop offset="80%" stop-color="#4570de" stop-opacity="1"></stop></linearGradient></defs><defs><linearGradient id="grad2_1" x1="0%" y1="0%" x2="66.7%" y2="100%"><stop offset="20%" stop-color="#aeb4f0" stop-opacity="1"></stop><stop offset="80%" stop-color="#4570de" stop-opacity="1"></stop></linearGradient></defs><defs><linearGradient id="grad2_2" x1="0%" y1="0%" x2="66.7%" y2="100%"><stop offset="20%" stop-color="#aeb4f0" stop-opacity="1"></stop><stop offset="80%" stop-color="#ffffff" stop-opacity="1"></stop></linearGradient></defs><g transform="translate(900, 0)"><path d="M0 432.7C-60.7 396.2 -121.4 359.7 -189.5 328.2C-257.6 296.7 -332.9 270.2 -374.7 216.3C-416.5 162.5 -424.6 81.2 -432.7 0L0 0Z" fill="#d7d9f8"></path><path d="M0 288.4C-40.5 264.1 -81 239.8 -126.3 218.8C-171.7 197.8 -222 180.1 -249.8 144.2C-277.6 108.3 -283 54.2 -288.4 0L0 0Z" fill="#8091e7"></path><path d="M0 144.2C-20.2 132.1 -40.5 119.9 -63.2 109.4C-85.9 98.9 -111 90.1 -124.9 72.1C-138.8 54.2 -141.5 27.1 -144.2 0L0 0Z" fill="#4570de"></path></g><g transform="translate(0, 600)"><path d="M0 -432.7C59.7 -394.3 119.3 -356 187.5 -324.8C255.7 -293.5 332.4 -269.3 374.7 -216.3C417 -163.4 424.8 -81.7 432.7 0L0 0Z" fill="#d7d9f8"></path><path d="M0 -288.4C39.8 -262.9 79.5 -237.3 125 -216.5C170.5 -195.7 221.6 -179.5 249.8 -144.2C278 -108.9 283.2 -54.5 288.4 0L0 0Z" fill="#8091e7"></path><path d="M0 -144.2C19.9 -131.4 39.8 -118.7 62.5 -108.3C85.2 -97.8 110.8 -89.8 124.9 -72.1C139 -54.5 141.6 -27.2 144.2 0L0 0Z" fill="#4570de"></path></g></svg>